<svg xmlns="http://www.w3.org/2000/svg" width="23" height="23" viewBox="0 0 23 23">
    <g>
        <g>
            <path d="M9.55.5a8.64 8.64 0 0 1 3.493.727 8.882 8.882 0 0 1 2.86 1.898 8.97 8.97 0 0 1 1.921 2.883 8.64 8.64 0 0 1 .727 3.492 8.779 8.779 0 0 1-.516 3 8.974 8.974 0 0 1-1.453 2.625l5.672 5.672a.954.954 0 0 1 .281.703.954.954 0 0 1-.281.703.918.918 0 0 1-.703.305.992.992 0 0 1-.727-.305l-5.672-5.672a9.048 9.048 0 0 1-2.601 1.453 8.773 8.773 0 0 1-3 .516 9.053 9.053 0 0 1-3.516-.703 9.196 9.196 0 0 1-2.86-1.922 9.489 9.489 0 0 1-1.921-2.883A8.882 8.882 0 0 1 .55 9.5c0-1.219.234-2.383.703-3.492a9.498 9.498 0 0 1 1.922-2.883 8.88 8.88 0 0 1 2.86-1.898A8.805 8.805 0 0 1 9.55.5zm0 1.992c-.952 0-1.859.188-2.718.563a7.092 7.092 0 0 0-2.25 1.5A6.844 6.844 0 0 0 3.105 6.78 6.726 6.726 0 0 0 2.543 9.5c0 .953.187 1.86.562 2.719.36.86.852 1.602 1.477 2.226a7.086 7.086 0 0 0 2.25 1.5c.86.375 1.766.563 2.719.563.937 0 1.843-.188 2.719-.563a7.166 7.166 0 0 0 2.226-1.5 7.164 7.164 0 0 0 1.5-2.226c.36-.86.54-1.766.54-2.719 0-.953-.18-1.86-.54-2.719a7.173 7.173 0 0 0-1.5-2.226 7.173 7.173 0 0 0-2.226-1.5 6.835 6.835 0 0 0-2.72-.563z"/>
        </g>
    </g>
</svg>